<?xml version="1.0" encoding="UTF-8"?>
<svg id="Layer_1" xmlns="http://www.w3.org/2000/svg" xmlns:xlink="http://www.w3.org/1999/xlink" version="1.1" viewBox="0 0 1080 1080">
  <!-- Generator: Adobe Illustrator 29.6.0, SVG Export Plug-In . SVG Version: 2.1.1 Build 207)  -->
  <defs>
    <style>
      .st0 {
        fill: none;
      }

      .st1 {
        clip-path: url(#clippath-1);
      }

      .st2 {
        clip-path: url(#clippath-3);
      }

      .st3 {
        clip-path: url(#clippath-2);
      }

      .st4, .st5 {
        fill: #fff;
      }

      .st5 {
        font-family: NeueFrutigerWorld-Light, 'Neue Frutiger World';
        font-size: 100.7px;
        font-weight: 300;
      }

      .st6 {
        clip-path: url(#clippath);
      }
    </style>
    <clipPath id="clippath">
      <rect class="st0" x="224.95" y="374.99" width="846.62" height="345.09"/>
    </clipPath>
    <clipPath id="clippath-1">
      <rect class="st0" x="224.95" y="381.15" width="838.06" height="342.83"/>
    </clipPath>
    <clipPath id="clippath-2">
      <rect class="st0" x="224.95" y="381.15" width="838.06" height="342.83"/>
    </clipPath>
    <clipPath id="clippath-3">
      <rect class="st0" x="224.95" y="381.15" width="838.06" height="342.83"/>
    </clipPath>
  </defs>
  <path class="st4" d="M10.14,355.26v-8.26h7.95v8.26h-7.95ZM10.95,433.91v-70.29h6.95v70.29h-6.95Z"/>
  <path class="st4" d="M31.09,433.91v-5.74c18.33-23.63,28.87-36.99,31.62-40.08h-30.31v-5.34h37.36v5.84c-18.53,23.97-29,37.26-31.42,39.88h31.82v5.44H31.09Z"/>
  <path class="st4" d="M83.35,433.91v-35.75c0-6.65-.17-11.78-.5-15.41h6.34c.27,3.49.4,6.68.4,9.57h.2c1.55-3.22,3.78-5.81,6.7-7.76,2.92-1.94,6.19-2.92,9.82-2.92s6.76,1.08,9.21,3.22c2.45,2.15,4.14,5.07,5.09,8.76,1.61-3.76,3.91-6.7,6.9-8.81,2.99-2.12,6.46-3.17,10.42-3.17,5.97,0,10.24,1.96,12.79,5.89,2.55,3.92,3.83,9.45,3.83,16.56v29.81h-6.65v-27.69c0-6.31-.77-11.06-2.32-14.25-1.55-3.19-4.6-4.79-9.16-4.79-9.47,0-14.2,7.62-14.2,22.86v23.86h-6.64v-28.9c0-6.18-.84-10.69-2.52-13.55-1.68-2.85-4.43-4.28-8.26-4.28-4.36,0-7.94,1.87-10.73,5.59s-4.18,8.98-4.18,15.76v25.38h-6.55Z"/>
  <path class="st4" d="M171.47,371.38v-8.16h7.76v8.16h-7.76ZM172.07,433.91v-51.16h6.55v51.16h-6.55Z"/>
  <path class="st4" d="M196.85,433.91v-35.75c0-6.65-.17-11.78-.5-15.41h6.44c.27,3.63.4,6.95.4,9.97h.2c1.14-3.22,3.01-5.87,5.59-7.95,2.59-2.08,5.49-3.12,8.71-3.12,1.54,0,2.95.2,4.23.6l-.1,6.05c-1.08-.34-2.48-.5-4.23-.5-4.23,0-7.65,1.83-10.27,5.49-2.62,3.66-3.93,8.38-3.93,14.15v26.49h-6.55Z"/>
  <text class="st5" transform="translate(223.53 433.91)"><tspan x="0" y="0"> </tspan></text>
  <path class="st4" d="M256.76,433.91v-70.29h34.54v6.04h-27.59v25.58h26.58v5.84h-26.58v32.83h-6.95Z"/>
  <path class="st4" d="M304.5,371.38v-8.16h7.76v8.16h-7.76ZM305.1,433.91v-51.16h6.55v51.16h-6.55Z"/>
  <path class="st4" d="M329.87,433.91v-76.13h6.55v46.52h.2c1.94-2.22,4.56-4.84,7.85-7.86l15.41-13.7h9.06l-26.28,22.35,28.5,28.8h-9.06l-17.82-18.43c-3.02-3.09-5.58-6.01-7.65-8.76h-.2v27.19h-6.55Z"/>
  <path class="st4" d="M380.63,371.38v-8.16h7.76v8.16h-7.76ZM381.23,433.91v-51.16h6.55v51.16h-6.55Z"/>
  <path class="st4" d="M406,433.91v-35.75c0-6.65-.17-11.78-.5-15.41h6.44c.27,3.63.4,6.95.4,9.97h.2c1.14-3.22,3.01-5.87,5.59-7.95,2.59-2.08,5.49-3.12,8.71-3.12,1.54,0,2.95.2,4.23.6l-.1,6.05c-1.08-.34-2.48-.5-4.23-.5-4.23,0-7.65,1.83-10.27,5.49-2.62,3.66-3.93,8.38-3.93,14.15v26.49h-6.55Z"/>
  <text class="st5" transform="translate(432.7 433.91)"><tspan x="0" y="0"> </tspan></text>
  <path class="st4" d="M478.72,435.02c-5.98,0-11.38-.97-16.22-2.92l.81-6.85c5.04,2.48,10.1,3.73,15.21,3.73,4.77,0,8.61-1.19,11.53-3.58,2.92-2.38,4.38-5.52,4.38-9.41,0-3.22-1.06-5.96-3.17-8.21-2.12-2.25-5.99-4.72-11.63-7.4-6.24-2.95-10.69-5.86-13.34-8.71-2.65-2.85-3.98-6.53-3.98-11.03,0-5.31,2-9.65,5.99-13.04s9.21-5.09,15.66-5.09c5.24,0,10.04.84,14.4,2.52l-.9,6.34c-4.17-1.95-8.6-2.92-13.3-2.92-4.23,0-7.74,1.07-10.52,3.22s-4.18,5-4.18,8.56c0,3.09,1.07,5.69,3.22,7.8,2.15,2.12,6.08,4.52,11.79,7.2,6.04,2.89,10.4,5.86,13.09,8.91s4.03,6.77,4.03,11.13c0,5.91-2.12,10.67-6.35,14.3-4.23,3.63-9.74,5.44-16.51,5.44Z"/>
  <path class="st4" d="M529.67,434.62c-5.24,0-9.43-1.36-12.59-4.08-3.16-2.72-4.73-6.33-4.73-10.83,0-5.44,2.33-9.55,7-12.33,4.66-2.79,11.39-4.18,20.19-4.18,2.68,0,5.04.1,7.05.31v-1.51c0-9.93-4.5-14.9-13.49-14.9-5.44,0-10.44,1.64-15.01,4.93l-.4-6.14c4.7-2.82,10.14-4.23,16.31-4.23,12.55,0,18.83,6.68,18.83,20.04,0,2.48-.05,5.81-.15,9.97-.1,4.16-.15,6.58-.15,7.25,0,5.17.2,10.17.6,15.01h-6.04c-.14-1.07-.2-2.48-.2-4.23,0-1.48.06-3.15.2-5.04h-.2c-1.41,3.02-3.64,5.44-6.7,7.25-3.06,1.82-6.56,2.72-10.52,2.72ZM530.78,429.48c10.61,0,15.91-7.02,15.91-21.05-1.48-.2-3.49-.3-6.04-.3-14.24,0-21.35,3.86-21.35,11.58,0,2.95,1.06,5.32,3.17,7.1,2.11,1.78,4.88,2.67,8.31,2.67Z"/>
  <path class="st4" d="M570.45,433.91v-35.75c0-6.65-.17-11.78-.5-15.41h6.44c.27,3.49.4,6.68.4,9.57h.2c3.96-7.11,9.83-10.67,17.62-10.67,6.51,0,11.13,2.02,13.85,6.04,2.72,4.03,4.08,9.63,4.08,16.82v29.41h-6.65v-27.09c0-6.71-.92-11.66-2.77-14.85-1.85-3.19-5.15-4.79-9.92-4.79s-8.75,1.8-11.73,5.39c-2.99,3.59-4.48,8.81-4.48,15.66v25.68h-6.55Z"/>
  <path class="st4" d="M643.26,434.62c-5.24,0-9.43-1.36-12.59-4.08-3.16-2.72-4.73-6.33-4.73-10.83,0-5.44,2.33-9.55,7-12.33,4.66-2.79,11.39-4.18,20.19-4.18,2.68,0,5.04.1,7.05.31v-1.51c0-9.93-4.5-14.9-13.49-14.9-5.44,0-10.44,1.64-15.01,4.93l-.4-6.14c4.7-2.82,10.14-4.23,16.31-4.23,12.55,0,18.83,6.68,18.83,20.04,0,2.48-.05,5.81-.15,9.97-.1,4.16-.15,6.58-.15,7.25,0,5.17.2,10.17.6,15.01h-6.04c-.14-1.07-.2-2.48-.2-4.23,0-1.48.06-3.15.2-5.04h-.2c-1.41,3.02-3.64,5.44-6.7,7.25-3.06,1.82-6.56,2.72-10.52,2.72ZM644.37,429.48c10.61,0,15.91-7.02,15.91-21.05-1.48-.2-3.49-.3-6.04-.3-14.24,0-21.35,3.86-21.35,11.58,0,2.95,1.06,5.32,3.17,7.1,2.11,1.78,4.88,2.67,8.31,2.67Z"/>
  <path class="st4" d="M701.57,434.51c-5.24,0-8.91-1.37-11.03-4.13-2.11-2.75-3.17-6.85-3.17-12.29v-29.6h-10.98v-5.44h10.98v-11.68l6.44-2.21v13.89h13.49v5.44h-13.49v28.5c0,4.16.68,7.25,2.06,9.27s3.61,3.02,6.7,3.02c1.88,0,3.66-.37,5.34-1.11l.3,5.24c-2.02.74-4.23,1.11-6.65,1.11Z"/>
  <path class="st4" d="M396.59,733.63v-70.29h6.85v32.23h.2c4.43-4.9,9.09-9.8,14-14.7l17.32-17.52h9.36l-33.74,33.03,36.76,37.26h-10.07l-22.26-23.26c-5.24-5.7-9.03-9.9-11.38-12.59h-.2v35.85h-6.85Z"/>
  <path class="st4" d="M472.62,734.73c-6.18,0-10.71-1.86-13.59-5.59-2.89-3.73-4.33-9.48-4.33-17.27v-29.41h6.65v27.29c0,6.85.92,11.8,2.77,14.85s5.15,4.58,9.92,4.58,8.75-1.78,11.73-5.34c2.99-3.56,4.48-8.76,4.48-15.61v-25.78h6.55v35.85c0,6.58.16,11.68.5,15.31h-6.34c-.27-2.95-.4-6.17-.4-9.67h-.2c-3.76,7.18-9.67,10.78-17.73,10.78Z"/>
  <path class="st4" d="M515.02,733.63v-76.13h6.55v76.13h-6.55Z"/>
  <path class="st4" d="M557.01,734.73c-6.18,0-10.71-1.86-13.59-5.59-2.89-3.73-4.33-9.48-4.33-17.27v-29.41h6.65v27.29c0,6.85.92,11.8,2.77,14.85s5.15,4.58,9.92,4.58,8.75-1.78,11.73-5.34c2.99-3.56,4.48-8.76,4.48-15.61v-25.78h6.55v35.85c0,6.58.16,11.68.5,15.31h-6.34c-.27-2.95-.4-6.17-.4-9.67h-.2c-3.76,7.18-9.67,10.78-17.73,10.78ZM548.05,671.09v-7.76h7.15v7.76h-7.15ZM565.87,671.09v-7.76h7.15v7.76h-7.15Z"/>
  <path class="st4" d="M623.07,734.73c-3.69,0-7.08-1.01-10.17-3.02s-5.51-4.7-7.25-8.06h-.2c0,3.96-.13,7.29-.4,9.97h-6.14c.33-3.62.5-8.79.5-15.51v-60.62h6.55v21.25c0,6.64-.1,11.28-.3,13.89h.2c1.68-3.35,4.13-6.07,7.35-8.15,3.22-2.08,6.71-3.12,10.47-3.12,6.71,0,12,2.47,15.86,7.4,3.86,4.93,5.79,11.16,5.79,18.68,0,8.06-1.96,14.62-5.89,19.69-3.92,5.07-9.38,7.6-16.36,7.6ZM610.38,723.15c3.09,4.03,7.08,6.05,11.99,6.05s8.8-1.95,11.68-5.84c2.89-3.89,4.33-9.06,4.33-15.51,0-6.05-1.41-11.05-4.23-15.01-2.82-3.96-6.68-5.94-11.58-5.94s-8.68,1.98-11.93,5.94c-3.26,3.96-4.88,9-4.88,15.1s1.54,11.18,4.63,15.21Z"/>
  <path class="st4" d="M676.95,734.73c-6.18,0-10.71-1.86-13.59-5.59-2.89-3.73-4.33-9.48-4.33-17.27v-29.41h6.65v27.29c0,6.85.92,11.8,2.77,14.85s5.15,4.58,9.92,4.58,8.75-1.78,11.73-5.34c2.99-3.56,4.48-8.76,4.48-15.61v-25.78h6.55v35.85c0,6.58.16,11.68.5,15.31h-6.34c-.27-2.95-.4-6.17-.4-9.67h-.2c-3.76,7.18-9.67,10.78-17.73,10.78ZM667.99,671.09v-7.76h7.15v7.76h-7.15ZM685.81,671.09v-7.76h7.15v7.76h-7.15Z"/>
  <g class="st6">
    <g class="st1">
      <g class="st3">
        <g class="st2">
          <path class="st4" d="M474,588.13l.56,10.87c.08,1.62-1.06,3.08-2.66,3.39-4.59.85-10.91,1.88-14.87,1.88-19.92,0-25.99-7.62-25.99-32.58v-38.13h-7.64c-1.82,0-3.29-1.47-3.29-3.29v-11.28c0-1.82,1.47-3.27,3.29-3.27h7.64v-13.41c0-1.52,1.03-2.85,2.49-3.2l13.2-3.22c.98-.23,2-.02,2.8.6.79.63,1.27,1.57,1.27,2.58v16.64h20.1c1.82,0,3.28,1.45,3.28,3.27v11.28c0,1.82-1.45,3.29-3.28,3.29h-20.1v35.35c0,12.23.43,16.47,9.01,16.47,3.16,0,8.11-.22,10.77-.35,1.77-.04,3.34,1.29,3.42,3.11M411.66,558.51c0,31.5-11.97,45.55-38.8,45.55s-39-14.05-39-45.55,12.03-44.88,39-44.88,38.8,14.25,38.8,44.88M391.57,558.51c0-19.34-5.26-26.86-18.72-26.86s-18.9,7.02-18.9,26.86c0,17.98,3.01,27.71,18.9,27.71s18.72-10.16,18.72-27.71M706.58,516.98c-.61-.81-1.56-1.27-2.59-1.27h-12.81c-1.49,0-2.78,1-3.17,2.43l-17.18,64.79h-1.32l-17.2-64.79c-.38-1.43-1.68-2.43-3.18-2.43h-12.8c-1.02,0-1.98.46-2.61,1.27-.62.81-.83,1.85-.58,2.82l18.92,72.65c.94,3.6,4.28,9.71,10.87,9.71h3.67c-.31,1.21-.66,2.51-1.02,3.63l-.17.55c-1.03,3.35-2.57,8.41-11.92,8.41l-16.37-1c-.92-.08-1.83.26-2.48.92-.68.67-1.05,1.57-1,2.5l.4,8.58c.07,1.44,1.08,2.67,2.5,3.02,4.83,1.2,14.03,2.59,21.61,2.88.36.02.69.02,1.04.02,12.35,0,20.72-7.99,24.95-23.72,4.91-18.42,11.05-42.12,15.52-59.42,2.03-7.79,3.77-14.5,5.03-19.28l2.46-9.43c.26-.99.03-2.03-.58-2.84M321.82,597.56c.44,1.01.34,2.18-.25,3.12-.62.94-1.64,1.49-2.76,1.49h-15.33c-1.29,0-2.48-.77-2.99-1.96l-19.63-44.16c-9.76-.07-18.24-.59-22.81-.91v43.75c0,1.82-1.46,3.28-3.27,3.28h-13.71c-1.82,0-3.3-1.46-3.3-3.28v-110.78c0-1.67,1.26-3.08,2.93-3.26,17.58-1.99,31.65-2.19,36.87-2.19,1.8,0,2.76.01,2.76.01,33.73,0,40.82,19.92,40.82,36.61,0,13.94-6.66,24.01-20.35,30.81l21.02,47.48ZM280.26,501.68h-7.23c-8.07,0-12.66.6-14.99,1.07v34.15c3.86.27,11.27.66,21.26.55,12.88-.13,20.87-6.97,20.87-17.83,0-8.68-5.23-17.95-19.91-17.95M554.61,542.9v57.33c0,.95-.42,1.86-1.12,2.48-.73.63-1.69.91-2.61.78-6.71-.94-9.9-3.04-13.08-5.48-.13.06-14.98,6.05-28.24,6.05-15.97,0-25.13-10.08-25.13-27.7s8.38-24.82,28.95-26.35l21.48-1.73v-5.21c0-6.6-3.92-10.39-10.75-10.39-9.41,0-22.83,1.11-29.99,1.74-.89.1-1.8-.19-2.48-.79-.66-.58-1.08-1.44-1.11-2.33l-.43-10.96c-.07-1.67,1.12-3.12,2.76-3.37,6.4-1.02,22.34-3.34,32.29-3.34,20.1,0,29.46,9.31,29.46,29.27M515.79,564.72c-7.75.73-11.44,4.27-11.44,11.1,0,4.19,1.16,11.28,8.85,11.28,9.13,0,21.53-3.45,21.66-3.49v-19.91l-19.06,1.01ZM618.72,515.05c-8.73.52-17.32,5.51-22.67,9.3v-5.37c0-1.82-1.47-3.27-3.29-3.27h-13.19c-1.82,0-3.29,1.45-3.29,3.27v79.9c0,1.82,1.47,3.28,3.29,3.28h13.19c1.82,0,3.29-1.46,3.29-3.28v-55.22c2.98-2.48,12.19-9.39,23.17-10.36,1.69-.15,2.99-1.57,2.99-3.27v-11.71c0-.91-.36-1.76-1.04-2.38-.65-.64-1.55-.98-2.45-.89"/>
          <path class="st4" d="M830.65,630.34l-10.16,12.06-3.17-2.74,10.51-11.7c-1.66-1.54-2.94-2.93-4.55-4.37l2.34-2.35c4,3.78,7.52,6.71,11.94,10.27l-2.03,2.59c-1.61-1.26-3.27-2.47-4.88-3.75M810.28,600.36l-16.48,9.63c.59,1.15,1.23,2.51,1.95,3.62l16.52-9.65c-.8-1.45-1.26-2.23-1.98-3.6M820.86,615.73l-8.93,7.72,4.55-13.23c-.8-1.13-1.17-1.92-2.02-2.96l-16,10.86c.72,1.08,1.59,2.07,2.35,3.18l9.62-6.67-4.51,13.33c.78.88,1.57,2.23,2.68,3.12l14.81-12.7c-.82-.88-1.81-1.66-2.54-2.65M842.58,639.38c2.6,1.41,5.14,2.89,7.98,4.24l1.71-2.82c-3.94-2.03-7.63-4.36-10.94-6.66l-10.87,15.95c4.12,2.73,7.89,5,12.12,7.45l1.75-2.81-8.76-5.16,2.96-4.16,5.8,3.49,1.69-2.71c-1.86-1.02-3.81-2.21-5.84-3.45l2.4-3.34ZM896.32,579.94c-15.01,0-27.28-12.32-27.28-27.3s12.26-27.34,27.28-27.34,27.26,12.26,27.26,27.34-12.21,27.3-27.26,27.3M896.66,570.91c9.96,0,18.15-8.18,18.15-18.16,0-8.28-5.76-15.49-13.69-17.47-.1-.81-.32-4.6-.32-4.6h-9.16s-.21,4.11-.28,4.93c-7.6,2.31-12.73,9.24-12.73,17.14,0,9.97,8.18,18.16,18.02,18.16M856.56,449.55v-.9c-.1-4.94,3.69-9,8.66-9.4,5.26-.51,9.93,3.35,10.37,8.64v.76c0,4.93-3.73,9.15-8.78,9.61-5.11.45-9.8-3.4-10.25-8.72M860.05,449.21c.26,3.4,3.27,5.88,6.54,5.6,3.23-.33,5.64-2.91,5.64-6.16.12-.16,0-.35,0-.56-.28-3.42-3.22-5.81-6.62-5.49-3.24.24-5.67,2.8-5.55,6.05v.56ZM899.79,453.93c-1.61-.01-2.35-.01-3.92-.01l4.76-9.87,4.32-8.97,4.28.44,2.25,8.53,3.11,11.46c-1.44-.27-2.56-.49-3.92-.57l-1.11-3.59c-2.83-.44-5.38-.58-8-.69l-1.77,3.27ZM902.97,447.43c2.08.1,4.02.33,5.97.61l-1.02-3.99-1.29-4.12-1.93,4.12-1.72,3.39ZM883.95,438.91l1.69,15.63,4.11-.43-1.61-15.51,6.21-.38-.23-3.48c-6.93.4-9.79.68-16.65,1.7l.46,3.31,6.04-.83ZM884.6,650.49l-1.39,11.66-5.6-12.79c-1.31-.26-2.13-.59-3.46-.81l-4.4,18.86c1.36.36,2.67.51,4.07.75l2.36-11.59,5.68,12.91c1.29.19,2.75.6,4.25.56l2.1-19.48c-1.1-.06-2.41.12-3.6-.08M995.4,609.98l-14.01-7.72-1.79,3.23,16.81,9.39,6.48-11.61-2.89-1.55-4.6,8.26ZM974.28,612.81l19.08,6.27c-.45.57-.8,1.11-1.21,1.68-.33.43-.73.86-.99,1.42l-3.34-1.2-5.21,6.51,1.9,2.98c-.78.88-1.65,1.84-2.65,2.82l-7.56-12.53-2.8-4.62,2.76-3.33ZM976.44,617.17l2.26,3.58,2.07,3.6,2.79-3.6.72-.9-7.85-2.68ZM956.4,642.67c.81,1.43,1.21,3.08,1.27,4.77,0,1.32-.28,2.67-.82,3.9-.9,1.78-2.21,3.37-4.05,4.43-4.48,2.62-10.27,1.05-12.99-3.55-.1-.26-.22-.55-.4-.88-.54-1.23-.81-2.58-.92-3.9.12-3.39,1.77-6.53,4.81-8.29,4.55-2.58,10.42-1.04,13.11,3.51M954.23,647.45c0-1.15-.29-2.18-.84-3.17-1.59-2.96-5.36-3.92-8.3-2.23-2.07,1.11-3.13,3.22-3.13,5.39.07.99.31,2.1.89,3.04.17.29.37.6.66.92,1.85,2.2,5.1,2.72,7.6,1.26.69-.34,1.23-.79,1.68-1.26.92-1.11,1.44-2.6,1.44-3.96M963.45,624.65l7.94,8.56-13.32-3.93c-1.11.84-1.85,1.14-2.83,1.99l11.59,15.58c.99-.77,2.01-1.71,2.94-2.5l-7.04-9.37,13.46,4.05c.93-.8,2.25-1.71,3.16-2.85l-13.42-14.19c-.72.78-1.54,1.8-2.47,2.66M1048.81,552.76c0,1.78-.08,3.56-.28,4.98l-.05.39-.41.21c-6.48,3.86-14.85,6.05-23.24,6.28-.2,1.06-1.11,8.65-1.27,9.71,7.83,2.26,15.42,6.53,20.71,12l.21.34v.35c-.41,2.98-1.47,6.99-2.65,9.59l-.13.41-.38.06c-7.34,2.11-15.99,2.03-23.99.05-.38.99-3.34,8.04-3.64,9.07,7.01,4.43,13.21,10.52,16.7,17.02l.18.36-.11.38c-1.09,2.59-3.14,6.33-4.98,8.58l-.19.34h-.46c-7.49.09-15.86-2.14-23.16-6.2-.66.87-5.54,7.32-6.2,8.19,5.75,5.93,10.12,13.44,11.89,20.85l.12.39-.22.27c-1.67,2.27-4.74,5.27-6.97,7.07l-.26.23-.55-.11c-7.21-1.92-14.83-6.28-20.75-12.01-.87.66-6.92,5.39-7.82,6.06,3.87,7.09,6.22,15.24,6.22,22.61v1.02l-.45.25c-2.23,1.8-5.94,3.94-8.58,5.03l-.26.11-.44-.14c-6.49-3.78-12.71-9.94-16.96-17-1.02.45-8.38,3.6-9.38,4.04,1.01,3.93,1.6,8.05,1.71,12.12,0,4.11-.71,8.22-1.71,11.93l-.05.37-.4.22c-2.46,1.02-6.61,2.05-9.51,2.56l-.45.06-.25-.31c-5.59-5.31-9.87-12.88-12.12-20.77-1,.07-8.62,1.11-9.69,1.33-.13,8.28-2.41,16.68-6.35,23.19l-.21.34-.45.06c-2.65.4-6.88.4-9.77,0l-.36-.06-.26-.34c-3.81-6.51-6.1-14.91-6.28-23.19-1.14-.11-9.17-1.26-10.29-1.33-2.19,7.85-6.51,15.37-11.95,20.75l-.29.28-.45-.07c-2.98-.44-6.89-1.59-9.52-2.67l-.32-.15-.13-.33c-1.11-3.7-1.68-7.85-1.68-11.96s.57-8.06,1.59-12c-1.02-.44-7.97-3.26-8.97-3.71-4.29,7.18-10.5,13.43-17.05,17.07l-.35.19-.41-.11c-2.71-1.21-6.29-3.26-8.6-4.99l-.28-.28v-.78c0-7.46,2.27-15.67,6.16-22.86-.86-.67-7.34-5.59-8.23-6.26-5.93,5.72-13.49,10.03-20.8,11.9l-.37.12-.4-.26c-2.23-1.8-5.1-4.7-6.91-6.98l-.24-.4.11-.39c1.94-7.36,6.31-14.88,12-20.72-.65-.88-5.56-7.24-6.25-8.19-7.23,4.05-15.67,6.39-23.16,6.2h-.4l-.26-.26c-1.75-2.32-3.85-6.02-4.97-8.65l-.17-.39.17-.35c3.77-6.6,9.94-12.7,16.97-16.92-.45-1.08-3.45-8.18-3.97-9.18-8,1.99-16.7,2.05-24.02,0l-.36-.11-.21-.33c-.99-2.47-2.07-6.62-2.52-9.54l-.08-.46.26-.34c5.32-5.43,12.81-9.72,20.81-12.09-.09-1.12-1.26-9.19-1.38-10.31-8.36-.11-16.76-2.27-23.3-6.15l-.33-.21-.03-.45c-.18-1.36-.24-3.13-.24-4.92s.06-3.47.24-4.94l.03-.45.33-.18c6.54-3.85,14.94-6.08,23.3-6.21.17-1.1,1.17-8.95,1.29-10-7.92-2.27-15.48-6.6-20.85-12.01l-.22-.26.07-.42c.35-3.02,1.48-7.05,2.6-9.55l.12-.36.39-.11c7.23-2.13,15.97-2.07,24.01-.1.45-.98,3.38-8.05,3.82-9.11-7.09-4.29-13.32-10.4-17.03-16.99l-.19-.42.19-.39c1.17-2.65,3.26-6.23,4.9-8.48l.27-.34h.45c7.58-.11,15.94,2.21,23.16,6.2.68-.81,5.6-7.46,6.26-8.35-5.72-5.97-10.05-13.44-11.93-20.85l-.08-.32.16-.33c1.83-2.3,4.87-5.28,7.09-7.03l.36-.22.34.07c7.45,1.91,14.97,6.34,20.82,12.03.85-.68,6.71-5.19,7.58-5.85-4.03-7.06-6.28-15.28-6.28-22.58v-1.1l.37-.26c2.2-1.72,5.91-3.85,8.56-4.93l.28-.18.44.19c6.53,3.69,12.67,9.87,16.96,16.94,1.03-.39,8.65-3.69,9.69-4.11-1-3.94-1.62-8.03-1.55-12.07,0-4.2.51-8.21,1.62-11.91l.06-.46.39-.1c2.46-1.03,6.56-2.13,9.44-2.58l.46-.06.33.29c5.43,5.29,9.77,12.85,12.05,20.84,1.12-.11,9.12-1.12,10.19-1.32.17-8.22,2.42-16.61,6.35-23.14l.17-.34.41-.11c2.87-.34,7.1-.34,9.87,0l.37.11.23.34c3.95,6.52,6.23,14.92,6.23,23.06,1.2.27,9.02,1.28,10.14,1.39,2.34-7.98,6.63-15.49,12.11-20.8l.25-.27.36.11c2.98.33,7.02,1.43,9.61,2.57l.32.13.12.45c1.12,3.66,1.66,7.65,1.66,11.79-.07,4.09-.66,8.2-1.66,12.16.99.4,8.6,3.59,9.66,4.03,4.22-7.07,10.29-13.2,16.88-16.94l.38-.19.4.18c2.61,1.11,6.27,3.21,8.52,4.98l.33.21v1.02c0,7.49-2.32,15.68-6.24,22.66.84.66,7.12,5.57,8.07,6.3,5.92-5.75,13.44-10.15,20.85-11.97l.33-.18.33.35c2.23,1.65,5.24,4.78,6.95,7.03l.31.33-.13.38c-1.89,7.41-6.35,14.93-12.04,20.82.66.91,5.39,7.13,6.12,8.03,7.38-3.96,15.71-6.24,23.26-6.1h.35l.25.33c1.84,2.34,3.93,5.98,4.96,8.48l.25.48-.25.36c-3.75,6.54-9.92,12.6-16.99,16.92.43,1.07,3.31,8.17,3.85,9.17,7.93-2,16.66-2.04,23.89,0l.43.09.17.41c1.01,2.51,2.18,6.59,2.56,9.59l.06.37-.3.3c-5.31,5.5-12.87,9.8-20.81,12.05.16,1.09,1.15,8.85,1.34,9.95,8.36.18,16.7,2.42,23.18,6.25l.41.24.05.39c.2,1.41.28,3.13.28,4.96M819.87,463.86l12.51,13.94c1.75,1.88,3.68,1.65,6.21-.33,15.81-12.41,36.1-19.74,57.72-19.74s41.95,7.31,57.92,19.74c2.5,1.85,4.37,2.21,6.2.33l12.52-13.94c1.42-1.54,1.42-3.67-1.3-5.94-20.99-16.34-46.91-26.43-75.4-26.43s-54.6,10.09-75.22,26.51c-2.7,2.2-2.58,4.32-1.18,5.87M820.72,522.49c-1.38-.89-2.85-1.91-4.05-1.38-.98.29-1.7,1.32-2.21,2.99-5.87,20.14-5.87,37.21,0,57.09.4,1.3.85,2.58,2.02,2.91.97.4,2.39,0,4.24-1.28l38.75-26.4c1.44-.97,2.31-2.34,2.31-3.72,0-1.5-.87-2.82-2.31-3.83l-38.75-26.39ZM829.19,499.39c.18,1.41,1.79,2.14,3.19,2.79l42.22,20.51c1.68.8,3.24.8,4.51.14,1.19-.78,1.96-2.13,2.07-3.92l3.41-46.84c.19-2.26-.13-3.59-.94-4.29-.89-.77-2.22-.55-3.49-.32-20.24,4.87-34.99,13.42-49.52,28.58-1.17,1.33-1.72,2.44-1.45,3.34M829.81,606.49c0,.8.55,1.8,1.56,2.87,14.54,15.29,29.27,23.8,49.49,28.55,1.3.39,2.56.59,3.46-.12.91-.68,1.17-2.09,1.02-4.3,0-.07-3.44-46.94-3.44-46.94-.14-1.78-.81-3.13-2.06-3.85-1.26-.74-2.83-.74-4.52.03l-42.18,20.53c-1.47.69-3.07,1.46-3.29,2.84,0,.09-.05.27-.05.39M896.32,582.89c16.7,0,30.27-13.55,30.27-30.25s-13.57-30.26-30.27-30.33c-16.69,0-30.25,13.63-30.25,30.33s13.56,30.25,30.25,30.25M909.12,637.11c.72.56,1.89.73,3.69.28,20.17-4.84,34.96-13.39,49.38-28.52.86-.99,1.81-2.02,1.52-3.16-.26-1.09-1.19-2.08-3.16-3.01l-42.29-20.52c-1.6-.76-3.16-.76-4.45-.08-1.24.79-2,2.12-2.12,3.97l-3.42,46.81c-.03,1.53-.21,3.28.84,4.22M972.18,582.55c1.25.81,2.71,1.8,4.03,1.34.9-.27,1.67-1.26,2.17-3.03,5.92-20.07,5.92-37.21,0-57.03-.36-1.24-.94-2.53-1.98-2.99-1.06-.38-2.38.06-4.28,1.34l-38.78,26.36c-1.5,1.01-2.26,2.38-2.26,3.81s.76,2.79,2.26,3.78l38.84,26.42ZM963.63,498.64c.05-.8-.44-1.81-1.57-2.92-14.41-15.24-29.2-23.76-49.49-28.58-1.14-.3-2.46-.57-3.34.21-.91.73-1.17,2.13-.99,4.24l3.34,46.94c.11,1.78.91,3.19,2.1,3.9,1.3.74,2.86.6,4.47-.18l42.28-20.4c1.35-.66,2.9-1.37,3.19-2.82,0-.09.05-.21,0-.39M783.11,582.42l17.99-5.22c1.69-.5,3.07-2.27,2.94-4.47-6.46-33.51,1.75-60.68,21.39-82.46,1.99-1.41,2.2-4.32.3-6.31l-13.08-13.15c-1.27-1.46-3.58-1.46-5.56.57-25.07,26.38-37.73,66.88-28.45,108.28.52,1.98,2.09,3.44,4.46,2.76M1006.8,592.05l-18.04-6.16c-.94-.35-3.41-.35-4.69,2.82-14.57,34.93-48.48,58.84-87.75,58.84s-73.85-24.46-87.79-59.39c-1.04-2.63-3.57-2.63-4.53-2.28l-17.94,6.16c-1.95.7-3.12,2.43-2.1,4.92,17.62,44.97,61.44,76.71,112.36,76.71s94.92-31.96,112.6-76.9c.92-2.35-.19-4.03-2.12-4.73M985.95,471.2c-1.77-2.16-4.7-1.84-5.54-.33l-13.04,13.1c-1.91,1.99-1.72,4.9.26,6.31,19.68,21.78,27.9,48.89,21.45,82.46-.14,2.2,1.24,3.97,2.96,4.47l18.02,5.22c2.4.68,3.94-.78,4.45-2.83,9.28-41.33-3.42-81.96-28.55-108.39M943.95,466.31l4.15-7.99,11.2-5.2c-1.18-.85-2.45-1.44-3.63-2.21l-7.71,3.51-1.42-8.37c-1.61-.76-2.58-1.1-4.26-1.78l2.24,12.18-4.15,7.89,3.59,1.97ZM922.97,647.59c-5.58,1.22-9.88,2.24-15.42,3.1l.51,3.22c2.05-.32,3.92-.57,6.08-.84l2.79,15.49,4.11-.78-3.33-15.45c2.12-.52,4.06-1.06,6.16-1.55l-.91-3.2ZM868.1,650.3v1.05c-.3,2.56-2.03,5.16-4.85,5.48l.65,8.94c-1.31-.3-2.78-.73-4.17-1.32l-.15-8.41-3.78-1.61-3.06,7.42c-1.24-.41-2.47-.81-3.69-1.4l3.88-9.03.47-1.11,3.16-7.45,8.6,3.32c1.92.68,2.8,2.38,2.94,4.13M864.49,650.3c-.12-.54-.33-.97-.99-1.27l-4.81-1.77-1.09,3.04-.39,1.11-.03.07,4.39,1.64c1.2.53,2.36-.54,2.78-1.71.14-.32.26-.72.14-1.11M922.86,457.45c-1.54-.44-2.68-.63-4.36-1.12l3.11-10.63,2.28-7.58c3.29.81,6.41,1.88,9.54,2.9,1.77.54,2.72,2.55,2.9,4.68.12,2.9-1.32,6.04-4.24,6.7l1.14,8.57c-1.38-.57-2.39-.99-3.91-1.59l-.99-7.49-3.66-1.13-1.79,6.69ZM925.49,447.43l4.29,1.38c1.17.34,2.73-1.5,2.73-3.1,0-.76-.26-1.44-1.29-1.67-1.59-.61-2.68-.88-4.4-1.32l-.89,2.99-.44,1.72ZM904.63,659.42l4.16,10.08c-1.36.06-2.63.19-3.84.33l-1.28-3.26-8.31.23-.95,3.41c-1.33-.12-2.57-.15-3.89-.15l3.58-10.64,2.55-8.07.12-.26,4.23-.19.22.51,3.4,8.01ZM902.12,663.08l-1.49-3.67-1.5-3.97-1.31,3.97-1.29,3.91,5.58-.25ZM927.52,645.97l6.36,18.14c1.24-.43,2.56-.81,3.82-1.35l-6.16-18.05c-1.69.57-2.47.81-4.01,1.27M835.32,454.7l-1.06-1.91c2.79-1.77,5.8-3.31,8.69-4.86,3.41-1.88,8.22,2.67,7.88,6.77-.06.72-.26,1.38-.69,2.04l6.97,5.07c-1.32.62-2.31,1.14-3.88,1.82l-6.11-4.46-3.37,1.81,3.59,5.93c-1.39.88-2.23,1.43-3.86,2.38l-8.18-14.59ZM839.53,453.8l.53.9,1.94,3.36,4.03-2.12c.38-.19.59-.66.66-1.24.08-1.82-1.24-4.28-3.15-3.13-1.49.78-2.39,1.31-4.01,2.23"/>
          <path class="st4" d="M1016.83,675.16h1.19c1.71,0,2.77-.07,3.18-.19.42-.11.75-.35.98-.69.22-.33.36-.71.36-1.1,0-.42-.14-.78-.36-1.08-.24-.32-.57-.57-1-.71-.42-.14-1.48-.2-3.16-.2h-1.19v3.96ZM1013.87,683.43v-14.53h2.96c2.76,0,4.31.02,4.65.04.97.06,1.75.3,2.29.59.54.29.98.74,1.35,1.38.37.63.54,1.33.54,2.08,0,1.06-.36,1.96-1.03,2.7-.69.76-1.65,1.2-2.88,1.38.44.16.79.36,1.02.55.24.21.55.58.99,1.14.1.12.46.71,1.08,1.74l1.72,2.94h-3.65l-1.22-2.37c-.83-1.58-1.5-2.57-2.03-2.99-.52-.4-1.22-.61-2.06-.61h-.76v5.97h-2.96ZM1020.08,665.1c-1.88,0-3.69.47-5.42,1.4-1.73.93-3.09,2.3-4.08,4.07-.99,1.75-1.49,3.6-1.49,5.53s.48,3.76,1.46,5.49c.97,1.73,2.32,3.1,4.05,4.07,1.74.99,3.57,1.47,5.49,1.47s3.74-.48,5.48-1.47c1.74-.98,3.08-2.35,4.06-4.07.99-1.74,1.48-3.57,1.48-5.49s-.51-3.77-1.51-5.53c-.99-1.77-2.35-3.13-4.07-4.07-1.73-.94-3.55-1.4-5.43-1.4M1020.05,662.41c2.35,0,4.6.6,6.77,1.78,2.14,1.16,3.85,2.84,5.09,5.04,1.22,2.18,1.85,4.48,1.85,6.87s-.63,4.65-1.83,6.81c-1.2,2.15-2.9,3.86-5.04,5.06-2.17,1.21-4.44,1.82-6.83,1.82s-4.64-.6-6.8-1.82c-2.17-1.2-3.86-2.91-5.05-5.06-1.2-2.16-1.82-4.43-1.82-6.81s.62-4.7,1.84-6.87c1.24-2.21,2.93-3.87,5.09-5.04,2.15-1.17,4.42-1.78,6.75-1.78"/>
        </g>
      </g>
    </g>
  </g>
</svg>